<svg width="211" height="56" viewBox="0 0 211 56" fill="none" xmlns="http://www.w3.org/2000/svg">
<g clip-path="url(#clip0_474_1572)">
<path d="M38.0548 23.3558L41.0523 15.4743C41.3727 14.848 40.7075 14.1755 40.088 14.4994L32.2919 17.5297C28.6275 12.0639 28.1699 5.79339 31.5826 2.34503C35.6849 -1.80226 43.821 -0.300316 49.7572 5.70086C55.6934 11.702 57.1791 19.9272 53.0767 24.0745C49.6657 27.5245 43.4631 27.0619 38.0565 23.3574M23.1032 17.5281C26.7676 12.0622 27.2252 5.79174 23.8126 2.34338C19.7118 -1.80392 11.5741 -0.300316 5.63792 5.69921C-0.296622 11.7004 -1.78394 19.9272 2.31844 24.0729C5.72945 27.5229 11.932 27.0602 17.3387 23.3558L14.3412 15.4743C14.0208 14.848 14.686 14.1755 15.3055 14.4994L23.1016 17.5297L23.1032 17.5281ZM32.2903 38.4711C28.6259 43.9369 28.1683 50.2058 31.5809 53.6558C35.6833 57.8031 43.821 56.3011 49.7556 50.2999C55.6918 44.2988 57.1774 36.0736 53.0751 31.9263C49.6624 28.4779 43.4615 28.9389 38.0548 32.6434L41.0523 40.5249C41.3727 41.1511 40.7075 41.8236 40.088 41.4998L32.2919 38.4694L32.2903 38.4711ZM17.3387 32.6434C11.932 28.9389 5.72945 28.4763 2.31844 31.9263C-1.78394 36.0736 -0.298256 44.3004 5.63792 50.2999C11.5741 56.3011 19.7102 57.8031 23.8126 53.6558C27.2236 50.2074 26.7676 43.9369 23.1032 38.4711L15.3071 41.5014C14.6877 41.8253 14.0225 41.1528 14.3428 40.5265L17.3403 32.645" fill="#CCA884"/>
<path d="M70.3968 49.8136V40.5838C71.9086 41.0927 73.6084 41.4744 75.5599 41.4744C78.7078 41.4744 80.5971 40.2649 80.5971 36.4448V5.62262H90.9233V38.3548C90.9233 47.5218 84.3743 51.2131 77.5735 51.2131C74.929 51.2131 72.5362 50.7042 70.3951 49.8136" fill="black"/>
<path d="M114 38.1004V34.918L112.362 35.2997L106.947 36.572C104.744 37.0809 103.546 38.2276 103.546 40.3277C103.546 42.8111 105.623 44.5295 108.206 44.5295C111.291 44.5295 113.998 42.4922 113.998 38.1004M114.691 50.3225C114.565 49.0502 114.501 47.3302 114.501 45.739C112.864 49.303 109.526 51.2131 104.867 51.2131C99.5776 51.2131 93.6577 47.7119 93.6577 40.5821C93.6577 36.1259 96.4918 32.5618 102.348 31.3524L111.541 29.4423C112.99 29.1234 113.808 28.5517 113.808 27.2778C113.808 25.2405 112.738 23.2032 109.59 23.2032C106.001 23.2032 104.301 25.8766 103.798 28.2328L94.4161 25.8766C95.5487 20.7842 100.965 15.5001 109.466 15.5001C118.847 15.5001 123.822 20.9098 123.822 29.9495V45.0996C123.822 47.0096 123.885 48.4736 124.012 50.3192H114.693L114.691 50.3225Z" fill="black"/>
<path d="M158.405 50.3225H148.834C148.708 48.6669 148.644 46.9485 148.644 45.4201V44.1478C147.07 48.8585 143.355 51.2775 138.632 51.2775C131.328 51.2775 126.92 46.6312 126.92 37.7831V16.5857H136.994V36.1275C136.994 40.3921 138.506 42.8111 142.283 42.8111C145.683 42.8111 148.139 40.1377 148.139 35.108V16.584H158.214V44.8484C158.214 46.694 158.276 48.3496 158.402 50.3225" fill="black"/>
<path d="M209.662 16.5857H199.587V50.3241H209.662V16.5857Z" fill="black"/>
<path d="M199.074 9.19821C199.074 6.76271 201.382 4.72211 204.624 4.72211C207.867 4.72211 210.175 6.76271 210.175 9.19821C210.175 11.6915 207.867 13.7305 204.624 13.7305C201.382 13.7305 199.074 11.6899 199.074 9.19821Z" fill="black"/>
<path d="M196.243 45.0384V5.62262H186.169V21.2948C184.343 17.8563 181.068 15.7562 176.282 15.7562C168.223 15.7562 161.107 22.6315 161.107 33.3252C161.107 44.0189 167.844 51.2131 176.47 51.2131C181.507 51.2131 184.907 48.7941 186.67 44.9112V45.1656C186.67 46.8196 186.732 48.7941 186.86 50.3208H196.431C196.305 48.4108 196.241 46.8196 196.241 45.0368L196.243 45.0384ZM179.794 42.9714C179.454 43.0292 179.108 43.0606 178.755 43.0606C178.361 43.0606 177.974 43.0259 177.596 42.9582C173.933 42.3022 171.104 38.5564 171.104 33.4871C171.104 27.9189 174.517 23.95 178.698 23.9137C178.717 23.9137 178.735 23.912 178.755 23.912C182.867 23.912 186.311 27.8924 186.311 33.4871C186.311 38.6027 183.431 42.3666 179.794 42.973V42.9714Z" fill="black"/>
</g>
<defs>
<clipPath id="clip0_474_1572">
<rect width="210.175" height="55.9996" fill="white"/>
</clipPath>
</defs>
</svg>
